<svg height="482" viewBox="0 0 442 482" width="442" xmlns="http://www.w3.org/2000/svg"><path d="m220.5 436c-105.210136 0-190.5-87.304565-190.5-195 0-107.695404 85.289864-195 190.5-195 105.210144 0 190.5 87.304596 190.5 195 0 107.695435-85.289856 195-190.5 195zm22.265625-100.005859c67.442474.565734 98.483551-150.973969 15.466797-144.183594-20.727554 5.101745-46.746918 9.474151-74.068359.662109-96.09797-9.637909-37.62291 172.762177 37.638671 138.609375h.001954c7.292144 3.318726 14.303527 4.856262 20.960937 4.91211zm-28.03125-139.478516 10.792969-.798828c2.757477-10.169068 3.419479-19.777374 10.396484-32.583984 2.111939-2.296326 4.238541-4.584656 9.994141-4.798829-4.14592-5.417175-7.885193-11.403289-17.191406-9.595703-1.563416-.061737-1.229462 3.669464 2 13.19336-4.156586 10.957855-7.972672 26.757629-15.992188 34.583984zm.042969-17.011719c3.409881-.004608 6.576004-.312469 9.351562-.980468-6.971863-27.706543-34.116516-36.434021-55.77539-30.984375-32.996231 8.302764 16.259506 32.005523 46.423828 31.964843z" fill="#d5d5d5" fill-rule="evenodd"/></svg>