<svg height="32" viewBox="0 0 32 32" width="32" xmlns="http://www.w3.org/2000/svg"><path d="m17.141001 18.452999 2.312 2.312-2.328001 2.328001zm-.016001-9.546999 2.328001 2.328001-2.312 2.311999-.016001-4.640999zm-2.031 19.125 7.25-7.25-4.781-4.781 4.781-4.781-7.25-7.25v9.546999l-3.983999-3.983999-1.453 1.453001 4.999999 5.015998-4.999999 5.016001 1.453 1.452999 3.983999-3.983999v9.547001zm11.233999-12.031c0 11.094-4.219 14-10.327999 14-6.109 0-10.328-2.906-10.328-14s4.219-14 10.328-14c6.108999 0 10.327999 2.906 10.327999 14z" fill="#fff"/></svg>