<svg height="560" viewBox="0 0 480 560" width="480" xmlns="http://www.w3.org/2000/svg" xmlns:xlink="http://www.w3.org/1999/xlink"><linearGradient id="a" gradientUnits="userSpaceOnUse" x1="244.998987" x2="281.170366" y1="417.438095" y2="292.207587"><stop offset=".00001" stop-color="#41b0f6"/><stop offset="1" stop-color="#e4e4e1" stop-opacity="0"/></linearGradient><linearGradient id="b" gradientUnits="userSpaceOnUse" x1="214.990934" x2="237.398741" y1="172.47176" y2="267.318052"><stop offset=".00001" stop-color="#0071b9"/><stop offset="1" stop-color="#fff" stop-opacity="0"/></linearGradient><linearGradient id="c"><stop offset=".00001" stop-color="#41b0f6"/><stop offset="1" stop-color="#fff" stop-opacity="0"/></linearGradient><linearGradient id="d" gradientUnits="userSpaceOnUse" x1="271.22383" x2="299.451969" xlink:href="#c" y1="468.642589" y2="468.642589"/><linearGradient id="e" gradientUnits="userSpaceOnUse" x1="143.01758" x2="170.73095" xlink:href="#c" y1="448.676173" y2="453.688433"/><clipPath id="f"><path d="m87.251639-15.229983 297.47483 29.103048-25.03334 255.876319-297.474791-29.102986z"/></clipPath><clipPath id="g"><path d="m87.251639-15.229983 297.47483 29.103048-25.03334 255.876319-297.474791-29.102986z"/></clipPath><clipPath id="h"><path d="m87.251639-15.229983 297.47483 29.103048-25.03334 255.876319-297.474791-29.102986z"/></clipPath><clipPath id="i"><path d="m87.251639-15.229983 297.47483 29.103048-25.03334 255.876319-297.474791-29.102986z"/></clipPath><clipPath id="j"><path d="m87.251639-15.229983 297.47483 29.103048-25.03334 255.876319-297.474791-29.102986z"/></clipPath><clipPath id="k"><path d="m87.251639-15.229983 297.47483 29.103048-25.03334 255.876319-297.474791-29.102986z"/></clipPath><clipPath id="l"><path d="m87.251639-15.229983 297.47483 29.103048-25.03334 255.876319-297.474791-29.102986z"/></clipPath><clipPath id="m"><path d="m87.251639-15.229983 297.47483 29.103048-25.03334 255.876319-297.474791-29.102986z"/></clipPath><clipPath id="n"><path d="m87.251639-15.229983 297.47483 29.103048-25.03334 255.876319-297.474791-29.102986z"/></clipPath><clipPath id="o"><path d="m87.251639-15.229983 297.47483 29.103048-25.03334 255.876319-297.474791-29.102986z"/></clipPath><clipPath id="p"><path d="m87.251639-15.229983 297.47483 29.103048-25.03334 255.876319-297.474791-29.102986z"/></clipPath><path d="m291.899628 140.210022c-20.913239.260864-46.485657 6.710297-73.326722 10.492218-67.956192-6.307159-127.886146-34.748688-127.886146 55.685638 0 40.427582 6.354568 70.303589 23.687424 126.333069-6.212311 94.062195 11.725189 220.051453 22.359642 218.996338 6.117492 20.106995 29.366272-63.071716 37.463607-148.052521 9.686036-36.195098 62.834626-36.586395 71.927842 1.979889 5.678787 80.546814 40.190429 157.442078 45.987762 147.554566 8.014374-6.556153 29.437409-124.483582 26.046753-220.964325 24.944092-50.955322 24.896698-86.818451 24.896698-125.847016 0-53.70578-20.605011-66.557251-51.15686-66.177856z" fill="#0376bb"/><path d="m154.066681 138.52655c14.866913 2.288117 31.026047 5.619538 47.683151 7.966919 5.560272-.509796 11.061249-1.185577 16.479218-1.920593 7.231949 1.268555 14.594299 2.572693 22.08696 3.627777 21.209655-1.967987 41.613128-6.117432 59.680999-8.121033 18.340546 5.998932 29.638947 22.857605 29.638947 62.099549 0 40.42749-6.330902 70.303589-23.675629 126.333038 3.568543 53.93103-.829834 118.318726-7.220001 163.275055-5.690674-26.224548-11.796326-64.980438-14.878723-97.322418-7.706116-3.698975-22.727204-12.317993-60.961457-18.92157-29.117263-5.026733-30.397689.699524-50.682571 26.106018-2.572678 29.970886-11.179794 72.947388-15.55452 97.21579-6.271606-43.07135-17.688537-119.041962-15.933899-169.131775-24.944152-50.955261-24.89672-86.81839-24.89672-125.846924 0-45.715118 14.938041-61.815033 38.234245-65.359833z" fill="url(#a)"/><path d="m277.661102 150.939301c-17.463257.22525-38.827041 5.595886-61.24591 8.761291-56.764542-5.263885-106.818802-29.02243-106.818802 46.509491 0 26.793579 3.366981 48.074371 11.974144 79.064819 67.090736-72.520569 173.885765-126.036682 190.744438-6.034454 8.073669-26.876587 8.085541-49.248077 8.085541-73.030365 0-44.84967-17.214356-55.59082-42.739411-55.270782zm-144.73294 277.27835c.106704.972168.201568 1.944336.308258 2.904602.035568-.509765.059265-1.031433.094833-1.541198-.142258-.462403-.260788-.901032-.403091-1.363404z" fill="url(#b)" opacity=".649912"/><path d="m267.10965 349.923401c-3.473664.284515-10.243225 12.756622-20.782853 39.123413.213395.154114.343857.260803.557251.403137 6.153046 76.278778 39.016678 163.832276 46.307877 160.761658-1.185547.225281-2.572632-1.387085-.43866-11.74884-9.128814-27.339051-29.603393-93.149323-25.536956-144.827851-.059235 0-.106659.011872-.177765 0l.071106-.035522c3.66336-28.631256 3.936065-43.996125 0-43.675995zm27.232238 199.399048c-.035522-.035645-.177795.047363-.486053.296386-.154144.272644-.343872.43866-.557251.55719.616516-.177795 1.126282-.794311 1.043304-.853576z" fill="url(#d)"/><path d="m145.746613 389.887512c-6.660569-9.345032-11.01265-14.590393-15.400834-25.926666-9.042877 70.865601 3.258301 187.522125 10.706467 179.962555-10.825821-34.96283-3.151535-117.01532 4.694367-154.035889z" fill="url(#e)"/><g fill="#fff"><path d="m299.615845 300.194153h-204.615845l77.608154-102.194153 52.853836 65.904205 58.074021-58.726501 55.463928 92.004883-29.15329 3.011566-30.692383-61.384796-51.153976 51.153991-51.153977-61.384796-40.923156 51.153992h163.692688l10.230804 20.461609z" fill-rule="evenodd"/><path d="m217.769485 310.424927-41.10675 50.856506-40.739578.297455 61.38475-51.153961z" fill-rule="evenodd"/><path d="m258.692688 310.424927 61.384735 51.153961h-40.923157l-40.923187-51.153961z" fill-rule="evenodd"/><path clip-path="url(#f)" d="m194.879135 82.540253c-1.233749-.765717-2.648453-1.282502-4.192123-1.433564-4.572007-.447265-8.708405 2.332093-10.173096 6.480164 5.200485-2.184998 10.034058-3.820526 14.365219-5.0466"/><path clip-path="url(#g)" d="m168.190079 93.528503c-.932465-.415618-1.937027-.70404-3.007996-.808776-5.380752-.526459-10.165069 3.40686-10.691498 8.787597-.019348.197571-.021682.393097-.02977.589936 4.677887-3.30243 9.278443-6.138916 13.729264-8.568757"/><path clip-path="url(#h)" d="m259.869354 88.898468c1.358765-.512024 2.84494-.745056 4.388642-.594055 4.573822.44751 8.093109 3.97583 8.722412 8.328796-4.674713-3.151153-9.101471-5.692596-13.111054-7.734741"/><path clip-path="url(#i)" d="m283.920898 104.850861c.993439-.227204 2.034852-.315461 3.107666-.21048 5.380799.526398 9.313904 5.312561 8.787476 10.693359-.019318.197571-.054901.389832-.087006.584259-3.950958-4.146576-7.910827-7.820587-11.808136-11.067138"/><path d="m237 94.5c0-4.142151-4.253296-7.5-9.5-7.5s-9.5 3.357849-9.5 7.5 4.253296 7.5 9.5 7.5 9.5-3.357849 9.5-7.5z" fill-rule="evenodd"/><path d="m234 117c0-4.970551-4.029434-9-9-9s-9 4.029449-9 9 4.029434 9 9 9 9-4.029449 9-9z" fill-rule="evenodd"/></g><path clip-path="url(#j)" d="m147.815353 111.1633.17743.168396.136657.203491c.074845.111694.619049.951629 1.028809 2.460693 10.649765-8.609009 34.268005-24.927276 64.212494-28.71814l.272293-3.945983c-8.196945.706207-36.837647 4.870666-66.437821 29.227539.363892.358062.584961.575439.610138.604004" fill="#74fbea"/><path clip-path="url(#k)" d="m300.403656 126.425262.171143-.167785.200988-.129547c.031891-.021088.290894-.191468.715454-.472412-24.317901-29.63556-51.610443-39.270325-59.51329-41.551667l-.49559 3.922303c28.638306 9.522247 48.64621 30.106689 57.427368 40.616729.696503-1.402679 1.398895-2.122528 1.493927-2.217621" fill="#74fbea"/><path clip-path="url(#l)" d="m149.58783 116.67392c.281066 4.42514-1.259903 11.563385-9.934464 20.885772-6.395218 6.87024-11.954178 10.546967-16.206596 12.511506 1.894623 1.594696 3.259453 3.230773 4.457916 4.662261.98983 1.181763 1.84272 2.201081 2.767525 2.923523.888183.696442 2.221389 1.436463 3.502639 1.011902.813202-.270904 1.385483-.956878 1.522309-1.459839.147415-.992248-3.677475-10.829132-3.677475-10.829132l2.551269-.658264c.801896-.022217 5.024811.258576 9.527573 7.853882 1.66571 2.810089 3.342255 3.622894 4.523819 3.816772.016876-.57254.035782-1.146698.094101-1.743103.514526-5.258972 3.148346-14.307281 5.377106-16.680481 0 0 5.011062 15.109223 7.058319 18.325806 1.187423-4.477203 3.826034-7.171936 3.986694-7.327759l3.61705-3.568328.341141 5.068542c.23912 3.539246 1.691254 6.112213 2.997635 7.774261 1.524032-2.563293 3.751129-5.014953 4.646133-5.950805l3.403305-3.555756.59404 4.884522c.194687 1.611053.876602 3.120666 1.497956 4.219787 3.994567-3.235077 8.717285-10.749908 10.395462-13.745544l3.334259-5.956146 1.004364 6.749725c.151153 1.008453.137756 2.174072.016372 3.414947-.215667 2.204712-.782379 4.643616-1.418579 6.878052 1.18039-.880005 3.506668-2.611694 3.506668-2.611694l-.762802 5.510498c-.518875 3.740997-.040832 7.467712.698166 7.897949 1.18718-.206329 6.490173-10.622925 8.198212-16.229217l1.143326 6.37741 4.852829-69.477355c-30.032349 3.946289-53.761063 20.917419-63.616272 29.026306" fill="#00a1fe"/><path clip-path="url(#m)" d="m319.525085 167.865448c2.68689-1.12973 6.064209-1.981201 10.468781-2.223267 12.018097-14.039825 45.14801-54.963287 47.82312-82.306579 3.27301-33.455322-38.439606-57.203461-38.439606-57.203461s20.723114 28.536255 13.827149 50.947815c-6.894318 22.413605-51.165863 51.002228-51.165863 51.002228s-7.096131 7.003052 3.60907 24.294922c5.281616 8.532776 10.224762 13.074737 13.877349 15.488342" fill="#fff"/><path clip-path="url(#n)" d="m121.332314 148.475464c4.053123-1.66156 9.778968-5.157807 16.616081-12.504974 13.855392-14.889069 8.249283-23.134858 8.249283-23.134858s-37.889466-36.626678-40.31086-59.95166c-2.419731-23.322937 23.439323-47.30188 23.439323-47.30188s-45.524429 15.21344-48.797477 48.668732c-2.675095 27.343292 21.895149 73.911774 30.964302 90.014618 4.274131 1.091156 7.424247 2.581238 9.839348 4.210022" fill="#fff"/><path clip-path="url(#o)" d="m241.221786 90.384979-8.704879 69.102326 2.356003-6.036927c.589233 5.829163 3.772659 17.077851 4.897506 17.508576.810044-.276825 1.997757-3.842407 2.21547-7.611054l.32315-5.551635s1.94307 2.147552 2.932343 3.239746c-.194916-2.313843-.274521-4.815949-.058472-7.024384.121414-1.240875.337708-2.384826.677765-3.345184l2.295349-6.426849 2.116654 6.48941c1.064117 3.262024 4.242492 11.551788 7.534271 15.499664.822662-.957855 1.783966-2.30484 2.287628-3.851349l1.529266-4.674896 2.645905 4.147583c.700378 1.09195 2.408417 3.926727 3.408386 6.738831 1.601715-1.375702 3.527069-3.620087 4.447754-7.04776l1.316864-4.904511 2.858704 4.201935c.125549.183838 2.188171 3.33847 2.488861 7.963165 2.630157-2.760803 10.47644-16.612213 10.47644-16.612213 1.724518 2.76181 2.55658 12.149262 2.04242 17.40445-.058503.598266-.151459 1.167114-.24939 1.729858 1.198608.038971 3.000885-.433472 5.177795-2.867645 5.892975-6.576386 10.092255-6.035065 10.874848-5.859711l2.371368 1.141693s-5.657165 8.911102-5.704681 9.911286c.036743.519928.46524 1.303772 1.212372 1.727356 1.174285.668579 2.623962.198944 3.632324-.313904 1.043762-.531647 2.078033-1.366333 3.278137-2.333832 1.455048-1.171906 3.112762-2.510437 5.278687-3.707886-3.792908-2.751678-8.533844-7.436004-13.472565-15.4151-6.703308-10.826904-6.833435-18.128632-5.700073-22.415405-8.100739-9.861786-28.092163-31.110199-56.78621-40.805634" fill="#00a1fe"/><path d="m221.757904 156.007477c-.36499 2.320679-1.019592 4.57196-1.739075 6.533569-.325653-2.063873-.533371-4.399475-.443512-6.74707l-2.017135-4.839173s-4.134629 5.581482-6.130249 15.423005c-.361649-.361664-.82956-.990876-1.245423-2.075501l5.619675-80.440246c1.730805.963501 5.185547 2.293273 11.628082 2.923522 6.44252.63025 10.091294-.004486 11.972321-.614593l-10.075333 80.004364c-.618164.983429-1.197281 1.510284-1.625915 1.794556-.048477-10.041626-3.024826-16.318665-3.024826-16.318665zm.869537-20.301727c-3.741043-.366028-7.073547 2.370849-7.439361 6.110076-.366181 3.742859 2.372696 7.073731 6.113724 7.439698 3.739227.365844 7.071884-2.372895 7.437912-6.113892.365814-3.739227-2.373063-7.070038-6.112275-7.435882zm9.826889-17.42331c.366028-3.741089-2.939743-7.12735-7.382492-7.561981-4.442718-.434662-8.342086 2.246735-8.708114 5.987762-.365998 3.741059 2.939773 7.12732 7.382492 7.562012 4.442734.434632 8.342117-2.246734 8.708114-5.987793zm-5.269393-29.160797c-4.911744-.480499-9.134034 1.595123-9.431565 4.636322-.297516 3.041229 3.442597 5.894013 8.35434 6.374512 4.911743.48056 9.132004-1.593384 9.429535-4.634674.297516-3.041199-3.440552-5.8956-8.35231-6.37616z" fill="#00a1fe" opacity=".57654"/><path clip-path="url(#p)" d="m229.877747 61.597382s7.092544 10.525695 9.828369 21.909515c0 0-2.749863 1.869232-12.065583.957886-9.315689-.911438-11.651168-3.278168-11.651168-3.278168 4.888656-10.639801 13.888382-19.589233 13.888382-19.589233" fill="#fff"/><path d="m95.091522 164.446472c-1.546921 10.571015 16.808937 6.196747 32.817589 7.218231l184.7873 11.790863c16.008667 1.021485 35.65921 8.539307 37.206116-2.031646 1.546905-10.571015-15.595551-35.227845-31.604218-36.249298l-184.787307-11.790894c-16.008645-1.021454-36.872559 20.49176-38.41948 31.062744z" fill="#fff" fill-rule="evenodd"/><path d="m95.091522 157.27475c-1.546921 10.1828 16.808937 5.969177 32.817589 6.953125l184.7873 11.357849c16.008667.983978 37.756683 2.597015 39.303589-7.585724 1.546906-10.1828-40.189514-11.251984-53-27-9.928101-12.204681-137.164719-21.598389-147-22-16.026794-.65448-55.361557 28.09198-56.908478 38.27475z" fill="#41b0f6" fill-rule="evenodd"/></svg>