<svg height="56" viewBox="0 0 48 56" width="48" xmlns="http://www.w3.org/2000/svg" xmlns:xlink="http://www.w3.org/1999/xlink"><linearGradient id="a" gradientUnits="userSpaceOnUse" x1="27.789401" x2="32.662517" y1="37.575793" y2="20.704367"><stop offset=".00001" stop-color="#41b0f6"/><stop offset="1" stop-color="#e4e4e1" stop-opacity="0"/></linearGradient><linearGradient id="b" gradientUnits="userSpaceOnUse" x1="23.746627" x2="26.765474" y1="4.573201" y2="17.351175"><stop offset=".00001" stop-color="#0071b9"/><stop offset="1" stop-color="#fff" stop-opacity="0"/></linearGradient><linearGradient id="c"><stop offset=".00001" stop-color="#41b0f6"/><stop offset="1" stop-color="#fff" stop-opacity="0"/></linearGradient><linearGradient id="d" gradientUnits="userSpaceOnUse" x1="31.32249" x2="35.125469" xlink:href="#c" y1="44.474214" y2="44.474214"/><linearGradient id="e" gradientUnits="userSpaceOnUse" x1="12.942599" x2="16.699637" xlink:href="#c" y1="39.187028" y2="39.776376"/><path d="m34.107994.226803c-2.817493.035145-6.262686.904033-9.878792 1.413544-9.155262-.84972-17.229202-4.681447-17.229202 7.502136 0 5.446522.856107 9.471508 3.19124 17.019962-.83694 12.67234 1.579653 29.645985 3.012358 29.503838.824166 2.708877 3.95631-8.497208 5.047209-19.946076 1.30493-4.876312 8.465267-4.929024 9.69033.266735.765065 10.851509 5.414576 21.211067 6.195608 19.878994 1.07972-.883266 3.965897-16.770801 3.509095-29.768972 3.360546-6.864851 3.35416-11.69644 3.35416-16.954481 0-7.235401-2.775967-8.966793-6.892006-8.91568z" fill="#0376bb"/><path d="m15.538732 0c2.002915.308262 4.179919.75708 6.424016 1.073326.749095-.068676 1.490203-.159721 2.220129-.258747.97431.170902 1.966186.346603 2.97562.48875 2.857426-.265136 5.606243-.824161 8.040401-1.094093 2.470894.808193 3.99305 3.079445 3.99305 8.366234 0 5.446514-.852921 9.471508-3.189652 17.019964.480763 7.265749-.111797 15.940249-.972702 21.996897-.766662-3.533047-1.589233-8.754356-2.004509-13.111565-1.038188-.498333-3.061872-1.659515-8.212904-2.549165-3.922765-.67722-4.095268.09424-6.828107 3.51708-.346598 4.037762-1.506176 9.827686-2.095551 13.097198-.84493-5.8027-2.383053-16.037685-2.146663-22.785936-3.36055-6.864843-3.35416-11.696428-3.35416-16.954473 0-6.158875 2.012497-8.3279 5.151032-8.80547z" fill="url(#a)"/><path d="m32.189735 1.672283c-2.352699.03035-5.230892.753895-8.251228 1.180348-7.647486-.709164-14.390945-3.909989-14.390945 6.265899 0 3.609711.453609 6.476719 1.613192 10.651844 9.038663-9.770187 23.426408-16.980037 25.69766-.81298 1.087703-3.620892 1.089302-6.634842 1.089302-9.838864 0-6.042282-2.319165-7.489364-5.757981-7.446247zm-19.498848 37.355763c.014375.130973.027155.261943.04153.391319.004791-.06868.007984-.138958.012776-.207638-.019166-.062294-.035135-.121387-.054306-.183681z" fill="url(#b)" opacity=".649912"/><path d="m30.768217 28.480013c-.467983.038332-1.379999 1.718609-2.79993 5.270822.028749.020764.046325.035134.075075.05431.828956 10.276505 5.256443 22.071972 6.238735 21.658287-.159722.03035-.346596-.18687-.059097-1.58284-1.229859-3.683197-3.988259-12.54935-3.440413-19.511634-.007984 0-.01437.001602-.023952 0l.009582-.004784c.493536-3.85729.530277-5.92729 0-5.884161zm3.668806 26.86363c-.004787-.004799-.023952.006382-.065483.039929-.020763.036731-.046326.059097-.075073.075065.083057-.023952.151737-.10701.140556-.114994z" fill="url(#d)"/><path d="m13.002347 30.366327c-.945556-1.360834-1.558887-2.121101-2.208952-3.793394-.846529 10.666233 1.419926 28.066338 2.383048 26.890778-1.640342-5.173382-1.036593-17.507115-.174096-23.097384z" fill="url(#e)"/><g fill="#fff" fill-rule="evenodd"><path d="m22 8v20l9.988876-7.585743-6.441751-5.166153 5.740173-5.676395-8.992937-5.421273-.294361 2.849564 6 3-5 5 6 5-5 4v-16l-2-1z"/><path d="m21 16-4.970922 4.017944-.029078 3.982056 5-6z"/><path d="m21 12-5-6v4l5 4z"/></g></svg>